<?xml version="1.0" encoding="UTF-8" standalone="no"?>
<!DOCTYPE svg PUBLIC "-//W3C//DTD SVG 1.1//EN" "http://www.w3.org/Graphics/SVG/1.1/DTD/svg11.dtd">
<svg width="100%" height="100%" viewBox="0 0 1024 600" version="1.1" xmlns="http://www.w3.org/2000/svg" xmlns:xlink="http://www.w3.org/1999/xlink" xml:space="preserve" xmlns:serif="http://www.serif.com/" style="fill-rule:evenodd;clip-rule:evenodd;stroke-linejoin:round;stroke-miterlimit:1.5;">
    <g transform="matrix(2.01905,0,0,2.01905,-373.495,-220.658)">
        <g id="background">
            <g transform="matrix(1,0,0,1,-51.3226,-34.7182)">
                <path d="M316.259,346.43L611.112,156.738L711.241,380.646L316.259,346.43Z" style="fill:rgb(18,186,222);"/>
                <path d="M316.259,346.43L611.112,156.738L711.241,380.646L316.259,346.43ZM319.978,345.51L709.252,379.23L610.57,158.559L319.978,345.51Z" style="fill:rgb(64,64,64);"/>
            </g>
            <g transform="matrix(0.563246,0.430407,-0.359653,0.470655,163.684,-85.9362)">
                <path d="M316.259,346.43L611.112,156.738L711.241,380.646L316.259,346.43Z" style="fill:rgb(250,96,134);"/>
                <path d="M316.259,346.43L611.112,156.738L711.241,380.646L316.259,346.43ZM708.205,378.287L610.398,159.571L322.381,344.865L708.205,378.287Z" style="fill:rgb(64,64,64);"/>
            </g>
            <g transform="matrix(1,0,0,1,289.018,-70.6778)">
                <path d="M249.607,229.335L259.374,190.267L282.651,205.487L291.767,183.837L309.348,196.046" style="fill:none;stroke:rgb(250,96,134);stroke-width:13.06px;"/>
            </g>
            <g transform="matrix(-0.780615,0.232383,-0.118685,-0.398685,645.664,393.386)">
                <path d="M249.607,229.335L259.374,190.267L282.651,205.487L291.767,183.837L309.348,196.046" style="fill:none;stroke:rgb(32,46,132);stroke-width:20.19px;"/>
            </g>
            <g transform="matrix(1,0,0,1,-50.5619,114.953)">
                <g transform="matrix(1,0,0,1,-2.44172,0.406947)">
                    <circle cx="560.915" cy="176.96" r="4.68" style="fill:white;"/>
                </g>
                <g transform="matrix(1,0,0,1,-10.9877,9.76688)">
                    <circle cx="560.915" cy="176.96" r="4.68" style="fill:white;"/>
                </g>
                <g transform="matrix(1,0,0,1,1.62779,11.8017)">
                    <circle cx="560.915" cy="176.96" r="4.68" style="fill:white;"/>
                </g>
                <g transform="matrix(1,0,0,1,-5.69737,21.1616)">
                    <circle cx="560.915" cy="176.96" r="4.68" style="fill:white;"/>
                </g>
                <g transform="matrix(1,0,0,1,-17.906,20.7546)">
                    <circle cx="560.915" cy="176.96" r="4.68" style="fill:white;"/>
                </g>
                <g transform="matrix(1,0,0,1,6.51123,24.0103)">
                    <circle cx="560.915" cy="176.96" r="4.68" style="fill:white;"/>
                </g>
            </g>
            <path d="M240.655,249.561L286.291,249.561" style="fill:none;stroke:rgb(196,244,60);stroke-width:13.06px;"/>
            <g transform="matrix(0.742424,0,0,1,89.6448,19.7062)">
                <path d="M240.655,249.561L286.291,249.561" style="fill:none;stroke:rgb(196,244,60);stroke-width:14.83px;"/>
            </g>
            <g transform="matrix(0.507576,0,0,1,172.437,39.0666)">
                <path d="M240.655,249.561L286.291,249.561" style="fill:none;stroke:rgb(196,244,60);stroke-width:16.47px;"/>
            </g>
        </g>
        <g id="olivia" transform="matrix(1.3564,0,0,1.3564,-60.7328,-65.8864)">
            <g transform="matrix(1,0,0,1,-1,-2)">
                <path d="M370.271,144.325C388.248,138.16 411.69,138.221 441.714,150.259C442.149,150.238 444.029,151.078 444.029,151.078C444.158,151.06 444.292,151.04 444.427,151.019C469.714,146.958 486.839,161.726 496.71,178.833C501.389,182.342 506.153,184.771 509.664,183.85C507.412,186.184 504.923,187.598 502.424,188.392C507.101,194.537 513.737,201.855 518.692,201.654C515,204.101 511.064,204.343 507.644,203.735C510.316,211.806 515.58,223.824 523.752,226.16C517.637,225.864 511.31,220.211 506.994,215.395C506.846,217.097 506.532,218.53 506.056,219.628C505.833,221.404 505.554,223.421 505.297,225.532C506.486,229.269 507.956,232.596 509.694,234.208C507.862,233.7 506.193,232.608 504.72,231.258C504.282,237.296 504.557,243.029 507.249,245.196C503.087,247.214 497.296,243.07 497.296,243.07C497.296,243.07 498.441,254.624 501.617,256.931C499.718,259.246 495.634,254.792 492.938,248.604C492.884,248.955 492.832,249.316 492.782,249.685C494.37,257.129 498.168,267.386 507.102,268.503C501.757,268.906 496.892,266.481 493.047,263.534C494.144,268.626 496.663,273.436 501.741,276.447C494.912,275.404 489.788,273.04 485.96,269.919C485.778,270.405 485.592,270.894 485.403,271.387C486.047,274.444 487.057,277.044 488.626,278.249C486.627,278.014 484.922,277.234 483.486,276.185C483.406,276.378 483.325,276.572 483.245,276.764C482.803,282.063 483.237,289.461 488.452,292.202C484.514,291.085 481.726,287.609 479.9,284.328C479.585,285.005 479.263,285.685 478.936,286.369C479.805,289.96 480.893,293.675 481.994,295.414C479.415,294.083 478.187,291.39 477.601,289.108C474.865,294.625 471.728,300.372 468.151,306.259C458.582,322.012 426.415,347.379 411.93,347.379C402.828,347.379 384.684,336.592 370.271,324.392L370.271,144.325Z"/>
            </g>
            <g transform="matrix(1,0,0,1,-1,-1)">
                <path d="M372.729,143.596C388.966,139.911 409.248,141.34 434.269,151.51C434.688,151.489 436.502,152.311 436.502,152.311C436.626,152.294 436.755,152.273 436.885,152.254C461.279,148.282 477.8,162.724 487.321,179.454C491.835,182.887 496.431,185.262 499.818,184.361C497.646,186.644 495.244,188.027 492.834,188.804C497.346,194.813 503.747,201.97 508.528,201.773C504.966,204.166 501.169,204.403 497.87,203.808C500.447,211.702 505.525,223.455 513.409,225.74C507.51,225.45 501.407,219.922 497.242,215.212C497.1,216.876 496.797,218.278 496.338,219.352C496.122,221.088 495.853,223.061 495.605,225.126C496.753,228.781 498.17,232.034 499.848,233.611C498.08,233.114 496.47,232.046 495.049,230.726C494.627,236.63 494.892,242.237 497.489,244.357C493.474,246.33 487.887,242.277 487.887,242.277C487.887,242.277 488.992,253.577 492.055,255.834C490.224,258.097 486.284,253.741 483.683,247.69C483.631,248.033 483.58,248.386 483.533,248.747C485.065,256.027 488.729,266.058 497.347,267.151C492.191,267.545 487.498,265.173 483.788,262.291C484.846,267.271 487.276,271.975 492.175,274.92C485.587,273.9 480.645,271.588 476.951,268.536C476.776,269.011 476.597,269.489 476.414,269.971C477.035,272.961 478.01,275.503 479.523,276.682C477.595,276.452 475.95,275.689 474.565,274.664C474.487,274.852 474.41,275.041 474.332,275.23C473.906,280.412 474.325,287.647 479.355,290.328C475.557,289.235 472.867,285.836 471.105,282.627C470.801,283.289 470.491,283.954 470.176,284.623C471.014,288.135 472.063,291.769 473.125,293.469C470.638,292.167 469.453,289.533 468.888,287.302C466.249,292.698 463.222,298.318 459.772,304.075C450.54,319.481 419.51,344.29 405.536,344.29C398.255,344.29 384.978,337.037 372.729,327.759L372.729,143.596Z" style="fill:rgb(18,186,222);"/>
            </g>
            <g transform="matrix(1,0,0,1,17.6107,72.4554)">
                <path d="M316.634,203.44C317.732,200.992 318.231,199.092 318.231,199.092C318.231,199.092 317.821,201.458 317.166,204.514L318.268,206.742C318.268,206.742 318.309,214.358 313.344,216.92C314.8,214.622 316.232,208.867 317.166,204.514L316.634,203.44ZM448.988,204.514C448.333,201.458 447.923,199.092 447.923,199.092C447.923,199.092 448.422,200.992 449.519,203.44L448.988,204.514C449.922,208.867 451.354,214.622 452.81,216.92C447.845,214.358 447.886,206.742 447.886,206.742L448.988,204.514ZM312.221,201.661C310.237,203.019 307.695,203.977 304.661,203.527C310.233,201.184 312.152,183.068 312.152,183.068C312.152,183.068 300.502,194.158 288.633,190.131C302.3,192.058 307.107,169.944 307.107,169.944L317.197,196.192C317.197,196.192 316.332,197.803 314.698,199.527L316.634,203.44C314.938,207.222 311.812,212.311 306.886,213.709C311.054,211.518 312.167,206.351 312.221,201.661ZM452.932,196.543C449.409,193.185 447.927,188.46 447.927,188.46L462.495,163.405C462.495,163.405 463.729,188.234 477.918,190.01C465.208,190.968 455.211,175.932 455.211,175.932C455.211,175.932 454.173,195.709 459.443,199.756C457.362,199.511 455.599,198.675 454.127,197.561C453.59,202.887 453.816,210.843 459.268,213.709C454.342,212.311 451.216,207.222 449.519,203.44L452.932,196.543Z" style="fill:rgb(237,199,83);"/>
            </g>
            <g transform="matrix(1.02364,0,0,0.908163,8.30297,80.698)">
                <path d="M383,91C452.148,91 463.656,135.421 463,166C462.738,178.217 456.175,207.854 437.923,241.722C428.574,259.068 397.15,287 383,287C368.815,287 332.156,256.778 323.67,238.229C315.898,221.24 305,182.875 305,166C305,118.791 335.791,91 383,91Z" style="fill:rgb(241,206,190);"/>
            </g>
            <g transform="matrix(1.34347,0,0,1.07774,-76.7742,37.1728)">
                <path d="M305,166L315,158C315,158 319.839,191.46 301,196C309.424,188.121 305,166 305,166Z" style="fill:rgb(255,234,169);"/>
            </g>
            <g transform="matrix(-1.3625,0,0,1.18842,1001.94,38.1559)">
                <path d="M410.352,183.227C408.926,181.167 408.036,178.242 408.036,175C408.036,168.77 411.324,163.712 415.375,163.712C419.426,163.712 422.714,168.77 422.714,175C422.714,178.192 421.851,181.077 420.464,183.13C419.067,182.419 417.352,182 415.5,182C413.565,182 411.781,182.457 410.352,183.227Z" style="fill:rgb(108,49,17);"/>
            </g>
            <g transform="matrix(-1.28371,0,0,1.30188,881.486,22.528)">
                <ellipse cx="349" cy="169.5" rx="3" ry="3.5" style="fill:white;"/>
            </g>
            <g transform="matrix(-0.142308,0.774303,0.534857,0.0747871,439.697,-85.2486)">
                <path d="M429,120L423.128,116.806C423.128,116.806 427.256,129.712 425,136C430.589,131.081 429,120 429,120Z" style="fill:rgb(108,49,17);"/>
            </g>
            <g transform="matrix(-1.04196,0.235159,0.235159,1.04196,764.035,-9.9234)">
                <path d="M327,167C327,167 334.519,156.597 340,156C345.481,155.403 364,155 364,155C364,155 366.73,150.631 365,149C363.27,147.369 340,150 340,150C340,150 327.647,161.191 327,167Z" style="fill:rgb(211,155,96);"/>
            </g>
            <g id="Hair-main" serif:id="Hair main" transform="matrix(1,0,0,1,17.6107,72.4554)">
                <path d="M303.374,166.622L316.809,158C316.809,158 323.309,194.062 298,198.954C309.317,190.462 303.374,166.622 303.374,166.622ZM336.585,67.551C355.181,59.706 380.171,58.685 413,71.955C413.027,72.276 413.053,72.597 413.078,72.916C439.557,67.631 457.377,82.748 467.526,100.339C472.206,103.849 476.97,106.277 480.48,105.356C478.228,107.691 475.739,109.105 473.241,109.899C477.917,116.044 484.553,123.362 489.509,123.161C485.817,125.607 481.88,125.85 478.461,125.241C481.133,133.313 486.397,145.331 494.568,147.666C488.454,147.37 482.127,141.718 477.81,136.902C477.663,138.603 477.349,140.037 476.872,141.135C476.649,142.91 476.37,144.928 476.114,147.039C477.303,150.776 478.772,154.102 480.511,155.715C478.679,155.207 477.009,154.115 475.537,152.765C475.099,158.802 475.374,164.535 478.066,166.703C473.904,168.721 468.112,164.577 468.112,164.577C468.112,164.577 469.258,176.131 472.434,178.438C470.535,180.752 466.45,176.298 463.754,170.111C462.486,178.359 462.266,191.85 472.557,197.954C438.189,192.703 447.017,154 447.017,154L460.607,160.894C456.414,153.336 442.536,147.169 427.7,136.624C418.394,130.009 410.056,123.007 407.084,111.382C397.89,128.345 379.799,134.337 360,139.273C329.346,146.917 309.047,153.983 302,163.588C294.953,173.193 275.352,175.678 273,171.277C278.867,169.763 286,156.931 286,156.931C286,156.931 275.33,159.619 270,155.827C277.299,153.631 285.113,147.852 288.637,139.985C285.283,140.843 281.434,140.994 277.871,139.147C281.437,138.95 285.981,135.02 289.996,130.615C290.272,127.709 290.937,124.202 292.038,120.327C284.791,121.852 273.937,122.696 266.52,116.758C278.353,122.782 292.5,110.285 298.58,103.976C298.983,103.2 299.401,102.422 299.833,101.647C296.36,101.449 292.579,100.302 289.55,97.06C295.297,98.679 305.941,90.261 311.787,85.087C315.872,80.688 320.594,76.606 326.01,73.126C321.761,71.89 315.848,69.483 313.281,65.236C317.745,68.031 329.333,67.931 336.585,67.551Z" style="fill:rgb(255,224,128);"/>
            </g>
            <g transform="matrix(-1.20608,0,0,0.709317,829.199,99.3833)">
                <path d="M305,166L315,158C315,158 319.839,191.46 301,196C309.424,188.121 305,166 305,166Z" style="fill:rgb(255,234,169);"/>
            </g>
            <g transform="matrix(1,0,0,1,17.6107,72.4554)">
                <path d="M305,172C305,172 330.773,137.58 379,139C427.227,140.42 463,164 463,164C463,164 466.886,156.723 462,151C457.114,145.277 409.309,124.616 381,124C350.882,123.345 315.385,129.84 302,158C300.206,167.319 302.696,170.704 305,172Z" style="fill:white;"/>
                <clipPath id="_clip1">
                    <path d="M305,172C305,172 330.773,137.58 379,139C427.227,140.42 463,164 463,164C463,164 466.886,156.723 462,151C457.114,145.277 409.309,124.616 381,124C350.882,123.345 315.385,129.84 302,158C300.206,167.319 302.696,170.704 305,172Z"/>
                </clipPath>
                <g clip-path="url(#_clip1)">
                    <g transform="matrix(-0.58407,-0.881374,-0.549565,0.364187,621.781,332.492)">
                        <path d="M305,166L315,158C315,158 319.839,191.46 301,196C309.424,188.121 305,166 305,166Z" style="fill:rgb(255,234,169);"/>
                    </g>
                </g>
            </g>
            <g id="Hair-front" serif:id="Hair front" transform="matrix(1,0,0,1,17.6107,72.4554)">
                <path d="M449.519,139.75C449.519,139.75 447.962,155.534 438,160C447.99,152.803 439.047,133 439.047,133L449.519,139.75ZM449.519,139.75L459.99,146.5C459.99,146.5 461.654,155.849 455.802,160C458.164,154.694 449.519,139.75 449.519,139.75ZM325.622,121.63C325.622,121.63 322.187,148.339 310.012,152.971C320.672,151.539 337.577,126.58 337.577,126.58L325.622,121.63ZM395.942,111.68C395.985,102.429 394.309,94.192 394.309,94.192L407.928,109.18C407.928,109.18 407.653,110.286 407.07,112.056L427,128C427,128 428.589,139.081 423,144C425.256,137.712 417,120 417,120C417,120 415.513,138.707 406,144C415.126,135.84 407.707,114.009 407.046,112.129C404.67,119.31 397.314,137.095 382.786,136.864C393.342,135.138 395.86,122.841 395.941,111.886C393.992,114.085 373.29,137.057 363.577,131.863C379.366,131.1 381.215,107.867 381.215,107.867L395.942,111.68ZM350.088,110.396C350.088,110.396 348.963,137.302 337.233,142.964C347.73,140.62 356.053,121.875 356.053,121.875L350.088,110.396Z" style="fill:rgb(255,224,128);"/>
            </g>
            <g id="eye-left" serif:id="eye left" transform="matrix(1,0,0,1,17.6107,72.4554)">
                <g transform="matrix(1.33746,0,0,1.33746,-206.406,-61.6745)">
                    <path d="M410.352,183.227C408.926,181.167 408.036,178.242 408.036,175C408.036,168.77 411.324,163.712 415.375,163.712C419.426,163.712 422.714,168.77 422.714,175C422.714,178.192 421.851,181.077 420.464,183.13C419.067,182.419 417.352,182 415.5,182C413.565,182 411.781,182.457 410.352,183.227Z" style="fill:rgb(108,49,17);"/>
                </g>
                <g transform="matrix(1.33746,0,0,1.33746,-119.808,-57.6745)">
                    <ellipse cx="349" cy="169.5" rx="3" ry="3.5" style="fill:white;"/>
                </g>
                <g transform="matrix(0.139693,0.871409,-0.525031,0.0841663,345.509,-200.555)">
                    <path d="M429,120L423.128,116.806C423.128,116.806 427.256,129.712 425,136C430.589,131.081 429,120 429,120Z" style="fill:rgb(108,49,17);"/>
                </g>
            </g>
            <g id="mouth" transform="matrix(1,0,0,1,17.6107,72.4554)">
                <g transform="matrix(0.99165,-0.216652,0.231348,1.05892,-47.4073,68.7167)">
                    <path d="M372.938,230.416L374.185,233.416L373.746,238.793L401.843,238.458L411.087,230.839L393.224,230.839L372.938,230.416Z" style="fill:white;"/>
                </g>
                <g transform="matrix(1.0483,-0.229028,0.231348,1.05892,-69.3352,74.6169)">
                    <path d="M369.727,237.767C369.711,237.826 369.72,237.889 369.752,237.941C369.783,237.993 369.835,238.03 369.895,238.044C372.341,238.589 393.748,243.209 403.532,240.023C412.228,235.473 417.485,224.671 417.485,224.671L396.107,236.835C396.107,236.835 375.326,235.275 371.211,234.966C370.803,234.935 370.431,235.196 370.324,235.587C370.135,236.278 369.851,237.315 369.727,237.767Z" style="fill:rgb(212,113,116);"/>
                </g>
                <g transform="matrix(1.14746,-0.064727,0.0610446,1.08217,-70.5029,-1.30461)">
                    <path d="M372.569,238.504C372.569,238.504 382.475,233.381 385.72,233.552C388.964,233.722 394.259,234.576 394.259,234.576C394.259,234.576 396.65,231.673 399.382,230.819C402.115,229.965 413.386,228.087 415.777,226.208C418.168,224.329 409.8,235.943 395.283,237.48C380.767,239.017 372.569,238.504 372.569,238.504Z" style="fill:rgb(222,144,147);"/>
                </g>
            </g>
            <g id="nose" transform="matrix(1,0,0,1,17.6107,72.4554)">
                <g transform="matrix(-0.862748,-1.05656e-16,7.85645e-17,-0.641528,709.211,338.518)">
                    <path d="M368.033,214.518C367.368,213.438 367,212.248 367,211C367,206.033 372.825,202 380,202C387.175,202 393,206.033 393,211C393,212.248 392.632,213.438 391.967,214.518C391.989,214.347 392,214.174 392,214C392,210.137 386.623,207 380,207C373.377,207 368,210.137 368,214C368,214.174 368.011,214.347 368.033,214.518Z" style="fill:rgb(222,169,144);"/>
                </g>
                <path d="M381.611,165.326L381.198,192.006C381.198,192.006 376.648,192.626 374.786,193.867C372.925,195.108 380.991,178.149 381.611,165.326Z" style="fill:rgb(222,169,144);"/>
            </g>
            <g transform="matrix(1.06816,0,0,1.42422,2.0176,-6.69441)">
                <ellipse cx="339" cy="195.5" rx="11" ry="4.5" style="fill:rgb(222,152,144);"/>
            </g>
            <g transform="matrix(1.06816,0,0,1.42422,72.4458,-6.69441)">
                <ellipse cx="339" cy="195.5" rx="11" ry="4.5" style="fill:rgb(222,152,144);"/>
            </g>
            <g id="eyebrow-L" serif:id="eyebrow L" transform="matrix(1.06784,0.026217,-0.026217,1.06784,-1.46938,50.2455)">
                <path d="M327,167C327,167 334.519,156.597 340,156C345.481,155.403 364,155 364,155C364,155 366.73,150.631 365,149C363.27,147.369 340,150 340,150C340,150 327.647,161.191 327,167Z" style="fill:rgb(211,155,96);"/>
            </g>
            <g id="roots" transform="matrix(1,0,0,1.58592,18.6107,20.4704)">
                <path d="M413.846,78.548C414.762,78.467 415.939,78.303 416.189,78.72C416.327,78.949 416.171,79.824 416.007,80.083C415.866,80.307 415.502,80.589 414.948,80.861C414.398,81.131 413.62,81.435 412.994,81.752C412.886,81.807 412.764,81.882 412.657,81.952C413.035,82.101 413.564,82.314 413.711,82.387C414.259,82.661 414.372,82.992 414.225,83.347C414.154,83.518 413.967,83.73 413.645,83.924C413.35,84.102 412.879,84.291 412.641,84.42C412.028,84.752 411.424,84.972 411.35,85.74C411.301,86.248 411.622,86.678 411.908,87.108C412.18,87.516 412.445,87.923 412.581,88.352C412.74,88.855 412.5,89.311 412.064,89.74C411.901,89.9 411.71,90.057 411.535,90.215C411.417,90.322 411.274,90.418 411.257,90.538C411.208,90.879 411.448,91.212 411.657,91.556C411.991,92.108 412.315,92.671 412.315,93.245C412.315,95.85 410.722,97.514 409.264,99.14C408.033,100.513 405.791,101.501 406.373,103.597L405.652,104.206C404.945,101.66 405.592,100.032 407.088,98.364C408.357,96.948 409.815,95.513 409.815,93.245C409.815,92.758 409.414,92.294 409.149,91.828C408.877,91.35 408.699,90.872 408.767,90.397C408.826,89.984 409.16,89.597 409.579,89.229C409.728,89.099 409.885,88.97 410.011,88.837C410.066,88.778 410.15,88.728 410.129,88.66C409.995,88.235 409.678,87.844 409.419,87.437C409.063,86.878 408.792,86.299 408.855,85.644C408.987,84.269 409.916,83.817 411.013,83.224L411.062,83.198C410.93,83.143 410.804,83.085 410.695,83.027C410.205,82.766 409.955,82.456 409.912,82.198C409.861,81.892 409.984,81.577 410.297,81.27C410.7,80.872 411.523,80.458 412.361,80.089C412.524,80.017 412.707,79.933 412.885,79.848L412.707,79.834C411.775,79.755 410.978,79.548 410.534,79.104C410.322,78.893 410.291,78.71 410.301,78.573C410.316,78.369 411.255,78.19 411.453,78.048C411.628,77.922 413.846,78.548 413.846,78.548Z" style="fill:rgb(220,146,35);"/>
            </g>
        </g>
    </g>
</svg>
